<svg id="Layer_1" data-name="Layer 1" xmlns="http://www.w3.org/2000/svg" viewBox="0 0 38 38"><defs><style>.cls-1{fill:#fff;}.cls-1,.cls-2{stroke:#333;}.cls-2{fill:none;}</style></defs><circle class="cls-1" cx="19" cy="19" r="18.5"/><path class="cls-2" d="M22.2,13,15,19.93a.24.24,0,0,1-.35,0h0a.24.24,0,0,1,0-.35l7.2-6.93a.24.24,0,0,1,.35,0h0A.26.26,0,0,1,22.2,13Z" transform="translate(-1 -1)"/><path class="cls-2" d="M22.05,27.22l-7.23-6.88a.25.25,0,0,1,0-.35h0a.25.25,0,0,1,.36,0l7.22,6.88a.24.24,0,0,1,0,.35h0A.25.25,0,0,1,22.05,27.22Z" transform="translate(-1 -1)"/></svg>